<?xml version="1.0" encoding="UTF-8" standalone="no"?>
<svg
   xmlns:dc="http://purl.org/dc/elements/1.1/"
   xmlns:cc="http://creativecommons.org/ns#"
   xmlns:rdf="http://www.w3.org/1999/02/22-rdf-syntax-ns#"
   xmlns:svg="http://www.w3.org/2000/svg"
   xmlns="http://www.w3.org/2000/svg"
   xmlns:sodipodi="http://sodipodi.sourceforge.net/DTD/sodipodi-0.dtd"
   xmlns:inkscape="http://www.inkscape.org/namespaces/inkscape"
   inkscape:version="1.0 (4035a4fb49, 2020-05-01)"
   sodipodi:docname="testdrive.svg"
   id="svg16"
   version="1.1"
   viewBox="0 0 400 240"
   height="240"
   width="400">
  <defs
     id="defs10">
    <rect
       id="rect46"
       height="90.714287"
       width="235"
       y="142.85715"
       x="124.28571" />
    <rect
       id="rect40"
       height="90"
       width="224.28571"
       y="135.71429"
       x="125" />
    <rect
       id="rect34"
       height="85"
       width="300"
       y="40"
       x="49.285713" />
  </defs>
  <sodipodi:namedview
     inkscape:window-maximized="0"
     inkscape:window-y="0"
     inkscape:window-x="0"
     inkscape:window-height="728"
     inkscape:window-width="1350"
     units="px"
     showgrid="false"
     inkscape:document-rotation="0"
     inkscape:current-layer="layer1"
     inkscape:document-units="px"
     inkscape:cy="128.48835"
     inkscape:cx="400"
     inkscape:zoom="1.4"
     inkscape:pageshadow="2"
     inkscape:pageopacity="0.0"
     borderopacity="1.0"
     bordercolor="#666666"
     pagecolor="#ffffff"
     id="base" />
  <metadata
     id="metadata13">
    <rdf:RDF>
      <cc:Work
         rdf:about="">
        <dc:format>image/svg+xml</dc:format>
        <dc:type
           rdf:resource="http://purl.org/dc/dcmitype/StillImage" />
        <dc:title></dc:title>
      </cc:Work>
    </rdf:RDF>
  </metadata>
  <g
     id="layer1"
     inkscape:groupmode="layer"
     inkscape:label="Слой 1">
    <text
       transform="translate(-2.4934911,-0.64583841)"
       style="font-style:italic;font-variant:normal;font-weight:normal;font-stretch:normal;font-size:74.6667px;line-height:1.25;font-family:sans-serif;-inkscape-font-specification:'sans-serif Italic';white-space:pre;shape-inside:url(#rect34);fill:#000000;fill-opacity:1;stroke:none;"
       id="text32"
       xml:space="preserve"><tspan
         x="49.285156"
         y="106.06253"><tspan
           style="font-style:italic;font-variant:normal;font-weight:normal;font-stretch:normal;font-size:74.6667px;font-family:sans-serif;-inkscape-font-specification:'sans-serif Italic';fill:#008080">TEST</tspan></tspan></text>
    <text
       style="font-style:normal;font-weight:normal;font-size:40px;line-height:1.25;font-family:sans-serif;white-space:pre;shape-inside:url(#rect40);fill:#000000;fill-opacity:1;stroke:none;"
       id="text38"
       xml:space="preserve" />
    <text
       transform="translate(-1.2903655,-23.77335)"
       style="font-style:italic;font-variant:normal;font-weight:normal;font-stretch:normal;font-size:74.6667px;line-height:1.25;font-family:sans-serif;-inkscape-font-specification:'sans-serif Italic';white-space:pre;shape-inside:url(#rect46);fill:#000000;fill-opacity:1;stroke:none;"
       id="text44"
       xml:space="preserve"><tspan
         x="124.28516"
         y="208.91995"><tspan
           style="font-style:italic;font-variant:normal;font-weight:normal;font-stretch:normal;font-size:74.6667px;font-family:sans-serif;-inkscape-font-specification:'sans-serif Italic';fill:#008080">DRIVE</tspan></tspan></text>
    <path
       id="path4"
       style="fill:#05216f;stroke-width:0.405687;paint-order:markers fill stroke"
       fill="#f60"
       d="m 86.00012,125 c -9.4947,0 -0.49724,4.98915 -9.26915,8.62289 -8.77177,3.63345 -5.93723,-6.25733 -12.65096,0.45647 -6.71371,6.71381 3.17633,3.87952 -0.45712,12.65137 C 59.98943,155.50251 55,146.50523 55,155.99987 c 0,9.49472 4.98914,0.49661 8.62289,9.26875 3.63345,8.77176 -6.25652,5.93764 0.45712,12.65135 6.71373,6.71374 3.87886,-3.17632 12.65096,0.45715 8.77178,3.63345 -0.22549,8.62288 9.26915,8.62288 9.49471,0 0.49726,-4.98915 9.26915,-8.62288 8.7719,-3.63376 5.93764,6.25651 12.65137,-0.45715 6.71372,-6.71371 -3.17698,-3.87949 0.45649,-12.65135 3.63344,-8.77185 8.62287,0.22613 8.62287,-9.26875 0,-9.4947 -4.98914,-0.49724 -8.62287,-9.26914 -3.63347,-8.77178 6.2573,-5.93764 -0.45649,-12.65137 -6.71373,-6.71372 -3.87951,3.17698 -12.65137,-0.45647 C 86.49749,129.98942 95.49477,125 86.00012,125 Z m 0,20.92739 a 10.072409,10.072409 0 0 1 10.072813,10.07281 10.072409,10.072409 0 0 1 -10.072813,10.07201 10.072409,10.072409 0 0 1 -10.072,-10.07201 10.072409,10.072409 0 0 1 10.072,-10.07281 z m 0,5.26784 c -2.51563,1e-4 -4.80415,2.2893 -4.80415,4.80497 9e-5,2.5155 2.28877,4.80416 4.80415,4.80416 2.51563,7e-5 4.80496,-2.2887 4.80496,-4.80416 8e-5,-2.51571 -2.2892,-4.80497 -4.80496,-4.80497 z">
      <animateTransform
         dur="0.65s"
         begin="0s;gear_1.end"
         to="0 86 156"
         from="90 86 156"
         type="rotate"
         attributeName="transform"
         id="gear_1" />
    </path>
    <rect
       y="113.57143"
       x="53.57143"
       height="5"
       width="185"
       id="rect97"
       style="fill:#31a881" 
       class="path" fill= "none" stroke ="#008000" stroke-width ="5" stroke-dasharray= "100" stroke-dashoffset="0">
      <animate id="l1" attributeName="stroke-dashoffset" values="300;110;"
        dur="2s" begin="0s;l2.end+0.2s" repeatCount="1" fill="freeze" calcMode="paced"/>
    </rect>
    <rect
       y="192.14285"
       x="124.28571"
       height="5"
       width="225"
       id="rect99"
       style="fill:#31a881"
       class="path" fill= "none" stroke ="#008000" stroke-width ="5" stroke-dasharray= "225" stroke-dashoffset="0">
      <animate id="l2" attributeName="stroke-dashoffset" values="225;0;"
        dur="1.5s" begin="l1.end+0.2s" repeatCount="1" fill="freeze" calcMode="paced"/>
    </rect>
  </g>
</svg>
